<?xml version="1.0" encoding="UTF-8" standalone="no"?>
<svg
   width="89.000122"
   height="36.000301"
   viewBox="0 0 89.000122 36.000301"
   fill="none"
   version="1.1"
   id="svg31"
   sodipodi:docname="fkheaderlogo_exploreplus-44005d.svg"
   xmlns:inkscape="http://www.inkscape.org/namespaces/inkscape"
   xmlns:sodipodi="http://sodipodi.sourceforge.net/DTD/sodipodi-0.dtd"
   xmlns="http://www.w3.org/2000/svg"
   xmlns:svg="http://www.w3.org/2000/svg">
  <sodipodi:namedview
     id="namedview31"
     pagecolor="#ffffff"
     bordercolor="#000000"
     borderopacity="0.25"
     inkscape:showpageshadow="2"
     inkscape:pageopacity="0.0"
     inkscape:pagecheckerboard="0"
     inkscape:deskcolor="#d1d1d1" />
  <path
     d="M 14.7564,2.78263 15.0013,1.18827 C 15.043,0.93813 14.97,0.68796 14.8033,0.49515 14.6417,0.30234 14.402,0.19287 14.1467,0.19287 H 4.4645 c -0.4273,0 -0.7868,0.3074 -0.8546,0.7295 L 1.0096,17.3632 c -0.0365,0.2501 0.0313,0.5056 0.198,0.6984 0.1616,0.1928 0.4013,0.3074 0.6514,0.3074 h 2.2355 c 0.4274,0 0.7817,-0.3074 0.8547,-0.7295 L 5.9549,11.261 h 5.5394 c 0.4221,0 0.7816,-0.3074 0.8494,-0.7295 L 12.573,9.1402 C 12.6094,8.8901 12.5417,8.6348 12.3749,8.442 12.2082,8.244 11.9685,8.1344 11.7131,8.1344 H 6.4864 L 7.1691,3.51747 h 6.7275 C 14.3343,3.51226 14.6939,3.20993 14.7564,2.78263 Z M 65.507,8.27 65.439,8.2438 C 64.84,8.0614 64.142,7.96265 63.376,7.96265 c -1.246,0 -2.194,0.50525 -2.814,1.50585 -0.605,0.9849 -0.918,2.095 -0.918,3.2935 0,0.7556 0.131,1.3912 0.391,1.8862 0.271,0.5107 0.657,0.7766 1.147,0.7766 0.547,0 1.177,-0.3545 1.881,-1.0476 0.688,-0.6774 1.318,-1.4901 1.86,-2.4073 z M 69.572,6.37847 67.795,17.655 c -0.068,0.4273 -0.428,0.7298 -0.855,0.7298 h -1.318 c -0.235,0 -0.459,-0.094 -0.621,-0.2659 -0.161,-0.1668 -0.25,-0.396 -0.239,-0.6305 l 0.052,-1.3967 -0.156,0.172 c -0.006,0.0052 -0.511,0.568 -1.095,1.0214 -0.87,0.6774 -1.834,1.0422 -1.938,1.0839 -0.537,0.198 -1.115,0.2969 -1.72,0.2969 -1.329,0 -2.319,-0.4742 -3.043,-1.4434 -0.719,-0.9641 -1.079,-2.2458 -1.079,-3.7987 0,-0.8077 0.083,-1.605 0.24,-2.3658 0.161,-0.7608 0.443,-1.5321 0.844,-2.2982 0.401,-0.76079 0.907,-1.43827 1.501,-2.00628 0.589,-0.56801 1.37,-1.03187 2.313,-1.38623 0.944,-0.34914 2.022,-0.52619 3.195,-0.52619 1.443,0 3.127,0.18242 5.003,0.5524 0.463,0.0938 0.766,0.52118 0.693,0.98497 z M 79.014,4.97138 C 78.128,5.17982 77.263,5.72177 76.69,6.14387 76.039,6.62328 75.106,7.63951 75.09,7.64993 L 74.934,7.82194 75.017,6.02911 C 75.028,5.79461 74.944,5.56012 74.777,5.38816 74.616,5.21619 74.387,5.12252 74.152,5.12252 h -1.329 c -0.427,0 -0.787,0.30219 -0.854,0.7295 L 70.15,17.384 c -0.036,0.2502 0.036,0.5003 0.198,0.6932 0.162,0.1928 0.401,0.3022 0.657,0.3022 h 2.053 c 0.427,0 0.787,-0.3074 0.854,-0.7295 l 0.959,-6.1387 c 0.547,-0.7713 1.256,-1.4331 2.116,-1.9751 0.641,-0.4012 1.297,-0.6617 1.954,-0.7607 0.36,-0.0574 0.646,-0.3333 0.714,-0.6929 L 80.051,5.97186 C 80.108,5.68525 80.015,5.39343 79.801,5.1902 79.603,4.98697 79.301,4.90884 79.014,4.97138 Z M 37.815,10.7453 c 0,-0.7608 -0.135,-1.3967 -0.396,-1.8865 -0.271,-0.5107 -0.651,-0.7712 -1.141,-0.7712 -0.547,0 -1.183,0.3493 -1.881,1.0475 -0.693,0.6827 -1.319,1.4902 -1.866,2.4074 l -0.5833,3.6948 0.0733,0.0208 c 0.599,0.1876 1.292,0.2812 2.063,0.2812 1.251,0 2.199,-0.5053 2.814,-1.5058 0.605,-0.9797 0.917,-2.0845 0.917,-3.2882 z m 2.778,-4.45564 c 0.714,0.96405 1.079,2.24614 1.079,3.79384 0,1.0213 -0.141,2.0217 -0.417,2.9701 -0.277,0.9484 -0.714,1.8708 -1.303,2.7463 -0.584,0.865 -1.428,1.5737 -2.512,2.0948 -1.089,0.5263 -2.381,0.7975 -3.835,0.7975 -0.573,0 -1.298,-0.0573 -2.1524,-0.1771 l -0.0885,-0.0105 -0.1564,1.5633 c -0.0052,0.0157 -0.0052,0.0311 -0.0052,0.052 l -0.4533,2.7462 c -0.073,0.4169 -0.4274,0.7193 -0.8495,0.7193 h -2.0375 c -0.2553,0 -0.4898,-0.1095 -0.6514,-0.3023 -0.1667,-0.1928 -0.2397,-0.4431 -0.198,-0.6984 L 29.6705,5.85202 c 0.0677,-0.4221 0.4273,-0.72441 0.8546,-0.72441 h 1.3184 c 0.2345,0 0.4635,0.0938 0.6255,0.26055 0.161,0.17196 0.25,0.40123 0.24,0.63052 L 32.656,7.4362 32.813,7.23824 C 32.828,7.22261 34.084,5.6957 36.007,5.09122 36.539,4.92447 37.049,4.8411 37.565,4.8411 c 1.308,0.00521 2.304,0.47409 3.028,1.44856 z M 88.133,5.12252 H 86.528 L 86.883,2.8297 C 86.919,2.57957 86.846,2.32419 86.685,2.13659 86.523,1.94378 86.278,1.83431 86.028,1.83431 h -1.621 c -0.38,0 -0.719,0.2501 -0.828,0.62008 l -0.787,2.66813 h -0.886 c -0.427,0 -0.781,0.30231 -0.849,0.72441 L 80.854,7.0871 c -0.037,0.25013 0.026,0.50539 0.198,0.6982 0.161,0.19281 0.401,0.3023 0.656,0.3023 h 0.537 l -0.959,6.1385 c -0.068,0.3856 -0.104,0.787 -0.104,1.2091 0,1.0891 0.286,1.8812 0.881,2.4231 0.583,0.5316 1.474,0.8076 2.657,0.8076 0.709,0 1.709,-0.2969 1.829,-0.3386 0.094,-0.0365 0.271,-0.0937 0.292,-0.1041 0.037,-0.0156 0.073,-0.0314 0.104,-0.0471 0.25,-0.1355 0.412,-0.3803 0.443,-0.6564 l 0.151,-1.2715 c 0.026,-0.2658 -0.067,-0.5369 -0.265,-0.7193 -0.058,-0.0521 -0.115,-0.0988 -0.183,-0.1405 -0.047,-0.0208 -0.088,-0.0419 -0.135,-0.0575 -0.032,-0.0104 -0.11,-0.0261 -0.417,-0.0209 -0.073,0 -0.151,0.0054 -0.229,0.0054 -0.141,0 -0.23,-0.0054 -0.277,-0.0158 -0.12,-0.0208 -0.417,-0.0833 -0.568,-0.2188 -0.073,-0.0625 -0.297,-0.2605 -0.297,-0.9901 0,-0.0729 0.006,-0.1823 0.026,-0.3386 l 0.881,-5.6592 h 1.819 c 0.411,0 0.771,-0.29183 0.849,-0.69309 l 0.24,-1.24042 C 89.035,5.90404 88.967,5.64368 88.8,5.44566 88.639,5.23722 88.394,5.12252 88.133,5.12252 Z M 55.47,5.47162 C 55.309,5.25275 55.048,5.12252 54.777,5.12252 H 52.63 c -0.38,0 -0.719,0.25543 -0.828,0.61499 C 51.619,6.36284 51.276,7.08178 50.77,7.88428 50.067,9.0151 49.488,9.7135 48.998,10.0262 l -0.078,0.0364 c -0.172,0.0886 -0.443,0.2187 -1.391,0.3855 l -0.12,0.0208 1.485,-9.28063 C 48.931,0.93813 48.863,0.68275 48.696,0.49515 48.535,0.30234 48.295,0.18753 48.045,0.18753 h -2.053 c -0.428,0 -0.787,0.30765 -0.855,0.72975 L 42.526,17.3894 c -0.042,0.2501 0.031,0.5003 0.193,0.6931 0.162,0.1928 0.406,0.3074 0.657,0.3074 h 2.053 c 0.427,0 0.787,-0.3074 0.854,-0.7295 l 0.673,-4.2941 h 1.287 l 1.771,4.4765 c 0.131,0.3335 0.449,0.5471 0.803,0.5471 h 2.23 c 0.474,0 0.865,-0.3857 0.865,-0.8652 0,-0.1146 -0.026,-0.2343 -0.073,-0.3437 l -2.027,-5.2268 0.042,-0.0364 C 52.693,11.1622 53.553,10.0886 54.413,8.739 54.97,7.86351 55.366,7.01929 55.601,6.24285 55.684,5.97187 55.632,5.69048 55.47,5.47162 Z M 25.7413,3.98641 c 0.8546,0 1.4956,-0.21887 1.902,-0.66181 0.4117,-0.44815 0.615,-1.0004 0.615,-1.69869 0,-0.54195 -0.1512,-0.94833 -0.4586,-1.2193 C 27.4974,0.13563 27.0285,0 26.4031,0 c -0.8546,0 -1.4956,0.22409 -1.8968,0.66182 -0.4169,0.44815 -0.6201,1.00574 -0.6201,1.70402 0,0.54195 0.1563,0.94846 0.4586,1.21422 0.3126,0.27619 0.766,0.40635 1.3965,0.40635 z m 0.6931,1.13611 h -2.0323 c -0.4273,0 -0.7817,0.30231 -0.8546,0.72441 L 21.7288,17.384 c -0.0365,0.2502 0.0313,0.5056 0.198,0.6932 0.1616,0.1928 0.4013,0.3022 0.6514,0.3022 h 2.0323 c 0.4273,0 0.7817,-0.3074 0.8546,-0.7295 L 27.2838,6.11791 C 27.3203,5.86778 27.2525,5.6124 27.0858,5.4248 26.9242,5.2372 26.6897,5.12252 26.4344,5.12252 Z M 20.5563,0.49515 c 0.1616,0.19281 0.2397,0.44298 0.198,0.69312 l -2.001,12.76713 c -0.0209,0.2188 -0.0261,0.3541 -0.0261,0.4427 0,0.4273 0.0834,0.7244 0.2449,0.8756 0.1512,0.1407 0.4847,0.2188 0.542,0.2292 0.1824,0.0261 0.3543,0.12 0.4846,0.2555 0.172,0.1824 0.2606,0.4323 0.2397,0.6824 l -0.1146,1.1465 c -0.0261,0.245 -0.1303,0.4481 -0.2814,0.5575 -0.1407,0.0938 -0.3127,0.1826 -0.5315,0.2659 -0.2189,0.0834 -0.8338,0.2606 -1.2611,0.2606 -1.0787,0 -1.9125,-0.2502 -2.4805,-0.7453 -0.5628,-0.4898 -0.8494,-1.2038 -0.8494,-2.1261 0,-0.2502 0.0261,-0.5261 0.0782,-0.8232 0.0156,-0.125 2.173,-13.89787 2.199,-14.04899 0.0678,-0.42209 0.4274,-0.72975 0.8547,-0.72975 h 2.0531 c 0.2502,-0.00521 0.4847,0.10438 0.6514,0.29719 z"
     fill="#2A55E5"
     id="path1"
     inkscape:export-filename="..\..\..\clone\brand.svg"
     inkscape:export-xdpi="96"
     inkscape:export-ydpi="96"
     style="fill:#ffffff;fill-opacity:1" />
  <path
     d="m 79.678,27.5242 c 0,0 1.289,0.6406 1.925,0.9125 0.618,0.264 0.688,1.2536 0.008,1.5878 -0.681,0.3343 -0.869,0.3886 -0.869,0.3886 0,0 0.107,-0.2772 0.093,-0.5451 -0.044,-0.4775 -1.45,-0.8649 -2.382,-1.0943 0,0 -0.715,-2.2523 -1.039,-2.8797 C 77.089,25.2626 76.43,25 76.43,25 l 1.558,0.0212 c 0,0 0.536,-0.0266 0.774,0.5504 0.237,0.5797 0.916,1.9526 0.916,1.9526 z"
     fill="url(#paint0_linear_11912_12661)"
     id="path2"
     style="fill:url(#paint0_linear_11912_12661)" />
  <path
     d="m 79.588,32.4583 c 0,0 -0.632,1.2787 -0.91,1.9326 -0.264,0.6208 -1.269,0.6911 -1.602,0.008 -0.333,-0.6832 -0.367,-0.8039 -0.367,-0.8039 0,0 0.201,0.0398 0.521,0.0252 0.476,-0.0437 0.884,-1.4551 1.113,-2.3902 0,0 2.242,-0.7189 2.869,-1.0426 0.629,-0.3263 0.889,-0.9882 0.889,-0.9882 l -0.021,1.7974 c 0,0 0.027,0.3064 -0.548,0.5451 -0.577,0.2361 -1.944,0.9166 -1.944,0.9166 z"
     fill="url(#paint1_linear_11912_12661)"
     id="path3"
     style="fill:url(#paint1_linear_11912_12661)" />
  <path
     d="m 74.628,32.3683 c 0,0 -1.282,-0.6368 -1.925,-0.9127 -0.619,-0.2639 -0.689,-1.2547 -0.008,-1.5877 0.68,-0.3342 0.954,-0.3952 0.954,-0.3952 0,0 -0.177,0.2838 -0.134,0.6035 0.045,0.4788 1.407,0.813 2.336,1.0425 0,0 0.742,2.239 1.039,2.8797 0.362,0.7799 0.962,0.8994 0.962,0.8994 l -1.767,-0.0266 c 0,0 -0.306,0.0265 -0.544,-0.5505 -0.235,-0.5796 -0.913,-1.9524 -0.913,-1.9524 z"
     fill="url(#paint2_linear_11912_12661)"
     id="path4"
     style="fill:url(#paint2_linear_11912_12661)" />
  <path
     d="m 74.734,27.4255 c 0,0 0.634,-1.2853 0.909,-1.9326 0.263,-0.6208 1.249,-0.6898 1.582,-0.008 0.333,0.6831 0.365,0.8065 0.365,0.8065 0,0 -0.251,0.0039 -0.517,0.0185 -0.477,0.0451 -0.865,1.4114 -1.093,2.3452 0,0 -2.236,0.7335 -2.869,1.0425 -0.871,0.4245 -0.904,0.9684 -0.904,0.9684 l 0.036,-1.7762 c 0,0 -0.027,-0.3063 0.548,-0.5451 0.575,-0.2388 1.943,-0.9192 1.943,-0.9192 z"
     fill="url(#paint3_linear_11912_12661)"
     id="path5"
     style="fill:url(#paint3_linear_11912_12661)" />
  <path
     d="M 5.8872,33.6454 H 0 L 1.2929,25.4841 H 7.1801 L 6.9377,27.0656 H 2.9205 L 2.655,28.774 H 6.1297 L 5.8872,30.2862 H 2.4126 l -0.277,1.7777 h 4.0056 z"
     fill="#9E9E9E"
     id="path6"
     style="fill:#ffffff;fill-opacity:1" />
  <path
     d="m 12.7741,33.6454 h -2.0317 l -0.8312,-1.72 -1.4545,1.72 H 6.5405 l 2.5858,-3.036 -1.5469,-3.0475 h 2.0433 l 0.808,1.7893 1.4776,-1.7893 h 1.8585 l -2.5858,3.0129 z"
     fill="#9E9E9E"
     id="path7"
     style="fill:#ffffff;fill-opacity:1" />
  <path
     d="m 18.0739,27.4349 c 0.608,0 1.0774,0.2232 1.4083,0.6696 0.3309,0.4463 0.4964,1.0274 0.4964,1.7431 0,0.4694 -0.0654,0.9235 -0.1962,1.3621 -0.1232,0.431 -0.3194,0.8465 -0.5888,1.2467 -0.2693,0.4002 -0.6541,0.7234 -1.1543,0.9697 -0.5003,0.2386 -1.0851,0.3578 -1.7547,0.3578 -0.2616,0 -0.5887,-0.0269 -0.9812,-0.0808 l -0.0692,0.6811 -0.2655,1.6161 h -1.7893 l 1.3391,-8.4384 h 1.4083 l -0.0462,1.2929 c 0.5695,-0.9466 1.3006,-1.4199 2.1933,-1.4199 z m -0.5772,1.5469 c -0.2385,0 -0.5156,0.1539 -0.8311,0.4617 -0.3079,0.3079 -0.5849,0.6696 -0.8312,1.0851 l -0.2539,1.6277 c 0.2693,0.0846 0.5772,0.127 0.9235,0.127 0.5541,0 0.9658,-0.2194 1.2351,-0.658 0.2771,-0.4464 0.4156,-0.9389 0.4156,-1.4776 0,-0.3386 -0.0577,-0.6157 -0.1731,-0.8311 -0.1155,-0.2232 -0.2771,-0.3348 -0.4849,-0.3348 z"
     fill="#9E9E9E"
     id="path8"
     style="fill:#ffffff;fill-opacity:1" />
  <path
     d="m 23.7202,32.1563 -0.1385,1.3621 c -0.4233,0.1693 -0.8581,0.254 -1.3044,0.254 -0.5002,0 -0.885,-0.1154 -1.1544,-0.3463 -0.2616,-0.2309 -0.3925,-0.5618 -0.3925,-0.9928 0,-0.1154 0.0116,-0.2424 0.0347,-0.3809 l 1.0735,-6.8454 h 1.8008 l -1.0043,6.3952 c -0.0077,0.0923 -0.0115,0.1578 -0.0115,0.1962 0,0.1847 0.0308,0.3079 0.0923,0.3694 0.0693,0.0616 0.204,0.0924 0.4041,0.0924 0.1616,0 0.3617,-0.0347 0.6002,-0.1039 z"
     fill="#9E9E9E"
     id="path9"
     style="fill:#ffffff;fill-opacity:1" />
  <path
     d="m 27.1317,33.7608 c -0.8311,-0.0153 -1.4776,-0.2385 -1.9393,-0.6695 -0.4618,-0.4309 -0.6926,-1.0351 -0.6926,-1.8123 0,-1.139 0.3232,-2.0625 0.9696,-2.7705 0.6542,-0.7157 1.5238,-1.0736 2.6089,-1.0736 0.8619,0 1.5276,0.2155 1.997,0.6465 0.4772,0.4233 0.7157,1.0312 0.7157,1.8239 0,1.1774 -0.3232,2.1163 -0.9696,2.8166 -0.6465,0.6926 -1.543,1.0389 -2.6897,1.0389 z m 0.1962,-1.5006 c 0.508,0 0.912,-0.1886 1.2121,-0.5657 0.3002,-0.3847 0.4502,-0.9081 0.4502,-1.5699 0,-0.8003 -0.3424,-1.2005 -1.0274,-1.2005 -0.5002,0 -0.9042,0.1885 -1.212,0.5656 -0.3079,0.3771 -0.4618,0.9043 -0.4618,1.5815 0,0.4079 0.0847,0.708 0.254,0.9004 0.177,0.1847 0.4386,0.2809 0.7849,0.2886 z"
     fill="#9E9E9E"
     id="path10"
     style="fill:#ffffff;fill-opacity:1" />
  <path
     d="m 31.345,33.6454 0.958,-6.0835 h 1.42 l -0.069,1.4661 c 0.623,-1.062 1.4,-1.5931 2.332,-1.5931 h 0.103 l -0.346,1.8355 c -0.392,0 -0.781,0.1231 -1.166,0.3694 -0.385,0.2385 -0.7,0.531 -0.946,0.8773 l -0.485,3.1283 z"
     fill="#9E9E9E"
     id="path11"
     style="fill:#ffffff;fill-opacity:1" />
  <path
     d="m 42.056,29.2704 c -0.062,1.416 -1.12,2.124 -3.175,2.124 -0.292,0 -0.577,-0.0115 -0.854,-0.0346 0.038,0.354 0.162,0.6079 0.369,0.7619 0.216,0.1539 0.581,0.2308 1.097,0.2308 0.608,0 1.235,-0.1116 1.882,-0.3347 l -0.277,1.466 c -0.647,0.2001 -1.34,0.3001 -2.078,0.3001 -1.032,0 -1.767,-0.2193 -2.205,-0.6579 -0.431,-0.4387 -0.647,-1.0736 -0.647,-1.9047 0,-1.0621 0.316,-1.9548 0.947,-2.6782 0.639,-0.7234 1.497,-1.0851 2.574,-1.0851 0.808,0 1.405,0.1655 1.789,0.4964 0.385,0.3232 0.578,0.7619 0.578,1.316 z m -3.937,0.9581 c 0.077,0.0154 0.2,0.0231 0.37,0.0231 1.177,0 1.766,-0.2732 1.766,-0.8196 0,-0.177 -0.058,-0.3194 -0.173,-0.4271 -0.116,-0.1155 -0.289,-0.1732 -0.52,-0.1732 -0.369,0 -0.677,0.1232 -0.923,0.3694 -0.239,0.2463 -0.412,0.5887 -0.52,1.0274 z"
     fill="#9E9E9E"
     id="path12"
     style="fill:#ffffff;fill-opacity:1" />
  <path
     d="m 47.123,33.6454 h -1.881 l 1.293,-8.1613 h 3.347 c 1.024,0 1.743,0.1885 2.159,0.5656 0.423,0.3771 0.635,0.9081 0.635,1.593 0,0.3463 -0.031,0.6696 -0.092,0.9697 -0.062,0.2924 -0.177,0.5926 -0.347,0.9004 -0.161,0.3001 -0.377,0.5579 -0.646,0.7734 -0.262,0.2078 -0.612,0.381 -1.051,0.5195 -0.438,0.1308 -0.946,0.1962 -1.523,0.1962 h -1.466 z m 0.658,-4.1326 h 1.305 c 1.093,0 1.639,-0.5195 1.639,-1.5584 0,-0.3232 -0.092,-0.5656 -0.277,-0.7272 -0.185,-0.1693 -0.504,-0.254 -0.958,-0.254 h -1.305 z"
     fill="#ffc200"
     id="path13" />
  <path
     d="m 55.907,32.1563 -0.138,1.3621 c -0.424,0.1693 -0.859,0.254 -1.305,0.254 -0.5,0 -0.885,-0.1154 -1.154,-0.3463 -0.262,-0.2309 -0.393,-0.5618 -0.393,-0.9928 0,-0.1154 0.012,-0.2424 0.035,-0.3809 l 1.073,-6.8454 h 1.801 l -1.004,6.3952 c -0.008,0.0923 -0.012,0.1578 -0.012,0.1962 0,0.1847 0.031,0.3079 0.093,0.3694 0.069,0.0616 0.204,0.0924 0.404,0.0924 0.161,0 0.361,-0.0347 0.6,-0.1039 z"
     fill="#ffc200"
     id="path14" />
  <path
     d="m 63.104,27.5619 -0.97,6.0835 h -1.408 l 0.046,-1.2929 c -0.639,0.9466 -1.458,1.4199 -2.459,1.4199 -0.538,0 -0.942,-0.1501 -1.212,-0.4502 -0.269,-0.3001 -0.404,-0.7003 -0.404,-1.2005 0,-0.2078 0.016,-0.3925 0.046,-0.5541 l 0.647,-4.0057 h 1.789 l -0.565,3.5555 c -0.024,0.1154 -0.035,0.2385 -0.035,0.3694 0,0.454 0.162,0.681 0.485,0.681 0.254,0 0.538,-0.1423 0.854,-0.4271 0.316,-0.2847 0.612,-0.6426 0.889,-1.0735 l 0.496,-3.1053 z"
     fill="#ffc200"
     id="path15" />
  <path
     d="m 63.36,33.4723 0.312,-1.5007 c 0.054,0.0616 0.296,0.1385 0.727,0.2309 0.431,0.0846 0.835,0.1269 1.212,0.1269 0.778,0 1.166,-0.1924 1.166,-0.5771 0,-0.1386 -0.1,-0.2502 -0.3,-0.3348 -0.192,-0.0847 -0.431,-0.1539 -0.716,-0.2078 -0.277,-0.0616 -0.558,-0.1385 -0.842,-0.2309 -0.277,-0.1 -0.516,-0.2655 -0.716,-0.4963 -0.192,-0.2386 -0.289,-0.5387 -0.289,-0.9004 0,-0.6927 0.251,-1.2237 0.751,-1.5931 0.5,-0.3694 1.254,-0.5541 2.262,-0.5541 0.331,0 0.654,0.0231 0.97,0.0693 0.315,0.0385 0.554,0.0808 0.716,0.127 0.169,0.0462 0.277,0.0846 0.323,0.1154 l -0.3,1.4545 c -0.131,-0.0846 -0.37,-0.1577 -0.716,-0.2193 -0.346,-0.0616 -0.681,-0.0924 -1.004,-0.0924 -0.801,0 -1.201,0.1847 -1.201,0.5541 0,0.1309 0.096,0.2348 0.289,0.3117 0.2,0.077 0.438,0.1462 0.715,0.2078 0.278,0.0539 0.555,0.1308 0.832,0.2309 0.284,0.0923 0.523,0.2578 0.715,0.4963 0.2,0.2309 0.3,0.5272 0.3,0.8889 0,0.7465 -0.269,1.2967 -0.808,1.6507 -0.531,0.354 -1.262,0.531 -2.193,0.531 -0.354,0 -0.712,-0.023 -1.073,-0.0692 -0.362,-0.0462 -0.635,-0.0885 -0.82,-0.127 -0.177,-0.0462 -0.281,-0.077 -0.312,-0.0923 z"
     fill="#ffc200"
     id="path16" />
  <defs
     id="defs31">
    <linearGradient
       id="paint0_linear_11912_12661"
       x1="144.463"
       y1="26.9664"
       x2="149.60899"
       y2="32.094002"
       gradientUnits="userSpaceOnUse"
       gradientTransform="translate(-68,-2)">
      <stop
         offset="0.0411"
         stop-color="#FFF300"
         id="stop16" />
      <stop
         offset="0.2727"
         stop-color="#FFF300"
         id="stop17" />
      <stop
         offset="0.5022"
         stop-color="#FFE500"
         id="stop18" />
      <stop
         offset="0.8126"
         stop-color="#F2A930"
         id="stop19" />
    </linearGradient>
    <linearGradient
       id="paint1_linear_11912_12661"
       x1="145.00999"
       y1="36.399502"
       x2="150.16499"
       y2="31.2631"
       gradientUnits="userSpaceOnUse"
       gradientTransform="translate(-68,-2)">
      <stop
         offset="0.1874"
         stop-color="#F2A930"
         id="stop20" />
      <stop
         offset="0.4978"
         stop-color="#FFE500"
         id="stop21" />
      <stop
         offset="0.7273"
         stop-color="#FFF300"
         id="stop22" />
      <stop
         offset="0.9589"
         stop-color="#FFF300"
         id="stop23" />
    </linearGradient>
    <linearGradient
       id="paint2_linear_11912_12661"
       x1="140.703"
       y1="31.791401"
       x2="145.84"
       y2="36.909901"
       gradientUnits="userSpaceOnUse"
       gradientTransform="translate(-68,-2)">
      <stop
         offset="0.1874"
         stop-color="#F2A930"
         id="stop24" />
      <stop
         offset="0.4978"
         stop-color="#FFE500"
         id="stop25" />
      <stop
         offset="0.7273"
         stop-color="#FFF300"
         id="stop26" />
      <stop
         offset="0.9589"
         stop-color="#FFF300"
         id="stop27" />
    </linearGradient>
    <linearGradient
       id="paint3_linear_11912_12661"
       x1="140.179"
       y1="32.638401"
       x2="145.32201"
       y2="27.514299"
       gradientUnits="userSpaceOnUse"
       gradientTransform="translate(-68,-2)">
      <stop
         offset="0.0411"
         stop-color="#FFF300"
         id="stop28" />
      <stop
         offset="0.2727"
         stop-color="#FFF300"
         id="stop29" />
      <stop
         offset="0.5022"
         stop-color="#FFE500"
         id="stop30" />
      <stop
         offset="0.8126"
         stop-color="#F2A930"
         id="stop31" />
    </linearGradient>
  </defs>
</svg>
